{
  "accessors": [
    {
      "bufferView": 2,
      "componentType": 5126,
      "count": 65532,
      "max": [
        0.053481630980968475,
        0.040050238370895386,
        0.22364312410354614
      ],
      "min": [
        -0.048120878636837006,
        -0.05641448497772217,
        0.051867514848709106
      ],
      "type": "VEC3"
    },
    {
      "bufferView": 2,
      "byteOffset": 786384,
      "componentType": 5126,
      "count": 65532,
      "max": [
        0.9999903440475464,
        0.9999997615814209,
        0.9999318718910217
      ],
      "min": [
        -0.9998984932899475,
        -0.9986242055892944,
        -0.9961150288581848
      ],
      "type": "VEC3"
    },
    {
      "bufferView": 1,
      "componentType": 5126,
      "count": 65532,
      "max": [
        0.9993463158607483,
        0.9487303495407104
      ],
      "min": [
        0.00048828125,
        0.0005291892448440194
      ],
      "type": "VEC2"
    },
    {
      "bufferView": 1,
      "byteOffset": 524256,
      "componentType": 5126,
      "count": 65532,
      "max": [
        0.9993463158607483,
        0.9487303495407104
      ],
      "min": [
        0.00048828125,
        0.0005291892448440194
      ],
      "type": "VEC2"
    },
    {
      "bufferView": 0,
      "componentType": 5125,
      "count": 305298,
      "type": "SCALAR"
    },
    {
      "bufferView": 2,
      "byteOffset": 1572768,
      "componentType": 5126,
      "count": 65532,
      "max": [
        0.05330881476402283,
        0.03705987334251404,
        0.22004792094230652
      ],
      "min": [
        -0.05438705533742905,
        -0.06130087375640869,
        0.04603147506713867
      ],
      "type": "VEC3"
    },
    {
      "bufferView": 2,
      "byteOffset": 2359152,
      "componentType": 5126,
      "count": 65532,
      "max": [
        0.9999613761901855,
        0.999972403049469,
        0.9998553395271301
      ],
      "min": [
        -0.9999529719352722,
        -0.9999891519546509,
        -0.9997559785842896
      ],
      "type": "VEC3"
    },
    {
      "bufferView": 1,
      "byteOffset": 1048512,
      "componentType": 5126,
      "count": 65532,
      "max": [
        0.9994430541992188,
        0.9487303495407104
      ],
      "min": [
        0.00048828125,
        0.0005293680587783456
      ],
      "type": "VEC2"
    },
    {
      "bufferView": 1,
      "byteOffset": 1572768,
      "componentType": 5126,
      "count": 65532,
      "max": [
        0.9994430541992188,
        0.9487303495407104
      ],
      "min": [
        0.00048828125,
        0.0005293680587783456
      ],
      "type": "VEC2"
    },
    {
      "bufferView": 0,
      "byteOffset": 1221192,
      "componentType": 5125,
      "count": 260844,
      "type": "SCALAR"
    },
    {
      "bufferView": 2,
      "byteOffset": 3145536,
      "componentType": 5126,
      "count": 65532,
      "max": [
        -0.0010808352380990982,
        0.041413724422454834,
        0.21200165152549744
      ],
      "min": [
        -0.05438705533742905,
        -0.0464586466550827,
        0.07245457172393799
      ],
      "type": "VEC3"
    },
    {
      "bufferView": 2,
      "byteOffset": 3931920,
      "componentType": 5126,
      "count": 65532,
      "max": [
        0.9999569654464722,
        0.9999532103538513,
        0.9998884797096252
      ],
      "min": [
        -0.9999991059303284,
        -0.9998716711997986,
        -0.9984843730926514
      ],
      "type": "VEC3"
    },
    {
      "bufferView": 1,
      "byteOffset": 2097024,
      "componentType": 5126,
      "count": 65532,
      "max": [
        0.9994814395904541,
        0.9487303495407104
      ],
      "min": [
        0.00048828125,
        0.0005029035964980721
      ],
      "type": "VEC2"
    },
    {
      "bufferView": 1,
      "byteOffset": 2621280,
      "componentType": 5126,
      "count": 65532,
      "max": [
        0.9994814395904541,
        0.9487303495407104
      ],
      "min": [
        0.00048828125,
        0.0005029035964980721
      ],
      "type": "VEC2"
    },
    {
      "bufferView": 0,
      "byteOffset": 2264568,
      "componentType": 5125,
      "count": 267360,
      "type": "SCALAR"
    },
    {
      "bufferView": 2,
      "byteOffset": 4718304,
      "componentType": 5126,
      "count": 65532,
      "max": [
        0.0569906011223793,
        0.06020742654800415,
        0.21741704642772675
      ],
      "min": [
        -0.05829717218875885,
        -0.057265505194664,
        0.0
      ],
      "type": "VEC3"
    },
    {
      "bufferView": 2,
      "byteOffset": 5504688,
      "componentType": 5126,
      "count": 65532,
      "max": [
        0.9999864101409912,
        0.9999691843986511,
        0.9991965889930725
      ],
      "min": [
        -0.9999966025352478,
        -0.9999865293502808,
        -1.0
      ],
      "type": "VEC3"
    },
    {
      "bufferView": 1,
      "byteOffset": 3145536,
      "componentType": 5126,
      "count": 65532,
      "max": [
        0.9994797706604004,
        0.9526365995407104
      ],
      "min": [
        0.00048828125,
        0.0005958868423476815
      ],
      "type": "VEC2"
    },
    {
      "bufferView": 1,
      "byteOffset": 3669792,
      "componentType": 5126,
      "count": 65532,
      "max": [
        0.9994797706604004,
        0.9526365995407104
      ],
      "min": [
        0.00048828125,
        0.0005958868423476815
      ],
      "type": "VEC2"
    },
    {
      "bufferView": 0,
      "byteOffset": 3334008,
      "componentType": 5125,
      "count": 263880,
      "type": "SCALAR"
    },
    {
      "bufferView": 2,
      "byteOffset": 6291072,
      "componentType": 5126,
      "count": 65532,
      "max": [
        0.05697650462388992,
        0.06026223301887512,
        0.19441214203834534
      ],
      "min": [
        -0.023341359570622444,
        -0.06110122799873352,
        0.0
      ],
      "type": "VEC3"
    },
    {
      "bufferView": 2,
      "byteOffset": 7077456,
      "componentType": 5126,
      "count": 65532,
      "max": [
        0.9999701380729675,
        0.9999991655349731,
        0.999169111251831
      ],
      "min": [
        -0.9999231696128845,
        -0.9999863505363464,
        -0.9999487400054932
      ],
      "type": "VEC3"
    },
    {
      "bufferView": 1,
      "byteOffset": 4194048,
      "componentType": 5126,
      "count": 65532,
      "max": [
        0.9994451999664307,
        0.9487303495407104
      ],
      "min": [
        0.00048828125,
        0.000492055551148951
      ],
      "type": "VEC2"
    },
    {
      "bufferView": 1,
      "byteOffset": 4718304,
      "componentType": 5126,
      "count": 65532,
      "max": [
        0.9994451999664307,
        0.9487303495407104
      ],
      "min": [
        0.00048828125,
        0.000492055551148951
      ],
      "type": "VEC2"
    },
    {
      "bufferView": 0,
      "byteOffset": 4389528,
      "componentType": 5125,
      "count": 284430,
      "type": "SCALAR"
    },
    {
      "bufferView": 2,
      "byteOffset": 7863840,
      "componentType": 5126,
      "count": 65532,
      "max": [
        0.058607056736946106,
        0.013546198606491089,
        0.1232001781463623
      ],
      "min": [
        -0.06047813594341278,
        -0.06109887361526489,
        4.094839096069336e-05
      ],
      "type": "VEC3"
    },
    {
      "bufferView": 2,
      "byteOffset": 8650224,
      "componentType": 5126,
      "count": 65532,
      "max": [
        0.9999279975891113,
        0.9975115656852722,
        0.9982870221138
      ],
      "min": [
        -0.9999924898147583,
        -0.9999118447303772,
        -0.9998983144760132
      ],
      "type": "VEC3"
    },
    {
      "bufferView": 1,
      "byteOffset": 5242560,
      "componentType": 5126,
      "count": 65532,
      "max": [
        0.9994943737983704,
        0.9526365995407104
      ],
      "min": [
        0.00048828125,
        0.0005458785453811288
      ],
      "type": "VEC2"
    },
    {
      "bufferView": 1,
      "byteOffset": 5766816,
      "componentType": 5126,
      "count": 65532,
      "max": [
        0.9994943737983704,
        0.9526365995407104
      ],
      "min": [
        0.00048828125,
        0.0005458785453811288
      ],
      "type": "VEC2"
    },
    {
      "bufferView": 0,
      "byteOffset": 5527248,
      "componentType": 5125,
      "count": 266658,
      "type": "SCALAR"
    },
    {
      "bufferView": 2,
      "byteOffset": 9436608,
      "componentType": 5126,
      "count": 65532,
      "max": [
        0.059723861515522,
        0.05925467610359192,
        0.22278979420661926
      ],
      "min": [
        -0.05497981607913971,
        -0.061179354786872864,
        0.0
      ],
      "type": "VEC3"
    },
    {
      "bufferView": 2,
      "byteOffset": 10222992,
      "componentType": 5126,
      "count": 65532,
      "max": [
        0.9999755024909973,
        0.9999704360961914,
        0.9998522996902466
      ],
      "min": [
        -0.9999852776527405,
        -0.999990701675415,
        -0.9999064803123474
      ],
      "type": "VEC3"
    },
    {
      "bufferView": 1,
      "byteOffset": 6291072,
      "componentType": 5126,
      "count": 65532,
      "max": [
        0.9994961619377136,
        0.9545897245407104
      ],
      "min": [
        0.00048828125,
        0.0004903270164504647
      ],
      "type": "VEC2"
    },
    {
      "bufferView": 1,
      "byteOffset": 6815328,
      "componentType": 5126,
      "count": 65532,
      "max": [
        0.9994961619377136,
        0.9545897245407104
      ],
      "min": [
        0.00048828125,
        0.0004903270164504647
      ],
      "type": "VEC2"
    },
    {
      "bufferView": 0,
      "byteOffset": 6593880,
      "componentType": 5125,
      "count": 244020,
      "type": "SCALAR"
    },
    {
      "bufferView": 2,
      "byteOffset": 11009376,
      "componentType": 5126,
      "count": 65532,
      "max": [
        0.053287312388420105,
        -0.004696756601333618,
        0.22355230152606964
      ],
      "min": [
        -0.012792343273758888,
        -0.061220601201057434,
        0.08754301071166992
      ],
      "type": "VEC3"
    },
    {
      "bufferView": 2,
      "byteOffset": 11795760,
      "componentType": 5126,
      "count": 65532,
      "max": [
        0.9999914765357971,
        0.999725878238678,
        0.9999675154685974
      ],
      "min": [
        -0.9969906806945801,
        -0.9999819993972778,
        -0.9997694492340088
      ],
      "type": "VEC3"
    },
    {
      "bufferView": 1,
      "byteOffset": 7339584,
      "componentType": 5126,
      "count": 65532,
      "max": [
        0.9995070695877075,
        0.9545897245407104
      ],
      "min": [
        0.00048828125,
        0.0004924727836623788
      ],
      "type": "VEC2"
    },
    {
      "bufferView": 1,
      "byteOffset": 7863840,
      "componentType": 5126,
      "count": 65532,
      "max": [
        0.9995070695877075,
        0.9545897245407104
      ],
      "min": [
        0.00048828125,
        0.0004924727836623788
      ],
      "type": "VEC2"
    },
    {
      "bufferView": 0,
      "byteOffset": 7569960,
      "componentType": 5125,
      "count": 263301,
      "type": "SCALAR"
    },
    {
      "bufferView": 2,
      "byteOffset": 12582144,
      "componentType": 5126,
      "count": 46160,
      "max": [
        0.0524219274520874,
        0.04161742329597473,
        0.2193187028169632
      ],
      "min": [
        -0.051526278257369995,
        -0.06052330136299133,
        0.08299940824508667
      ],
      "type": "VEC3"
    },
    {
      "bufferView": 2,
      "byteOffset": 13136064,
      "componentType": 5126,
      "count": 46160,
      "max": [
        0.9999552965164185,
        0.9999155402183533,
        0.9999318718910217
      ],
      "min": [
        -0.9999939799308777,
        -0.9999980926513672,
        -0.9947987198829651
      ],
      "type": "VEC3"
    },
    {
      "bufferView": 1,
      "byteOffset": 8388096,
      "componentType": 5126,
      "count": 46160,
      "max": [
        0.9995118379592896,
        0.9526365995407104
      ],
      "min": [
        0.00048828125,
        0.0005328847328200936
      ],
      "type": "VEC2"
    },
    {
      "bufferView": 1,
      "byteOffset": 8757376,
      "componentType": 5126,
      "count": 46160,
      "max": [
        0.9995118379592896,
        0.9526365995407104
      ],
      "min": [
        0.00048828125,
        0.0005328847328200936
      ],
      "type": "VEC2"
    },
    {
      "bufferView": 0,
      "byteOffset": 8623164,
      "componentType": 5125,
      "count": 158625,
      "type": "SCALAR"
    }
  ],
  "asset": {
    "extras": {
      "author": "TechcampUCC (https://sketchfab.com/TechcampUCC)",
      "license": "CC-BY-4.0 (http://creativecommons.org/licenses/by/4.0/)",
      "source": "https://sketchfab.com/3d-models/lena-f9e0672a14d843738bd97bd11a5edfcc",
      "title": "Leña"
    },
    "generator": "Sketchfab-15.38.0",
    "version": "2.0"
  },
  "bufferViews": [
    {
      "buffer": 0,
      "byteLength": 9257664,
      "name": "floatBufferViews",
      "target": 34963
    },
    {
      "buffer": 0,
      "byteLength": 9126656,
      "byteOffset": 9257664,
      "byteStride": 8,
      "name": "floatBufferViews",
      "target": 34962
    },
    {
      "buffer": 0,
      "byteLength": 13689984,
      "byteOffset": 18384320,
      "byteStride": 12,
      "name": "floatBufferViews",
      "target": 34962
    }
  ],
  "buffers": [
    {
      "byteLength": 32074304,
      "uri": "scene.bin"
    }
  ],
  "extensionsUsed": [
    "KHR_materials_unlit"
  ],
  "images": [
    {
      "uri": "textures/tex_u1_v1_baseColor.jpeg"
    }
  ],
  "materials": [
    {
      "doubleSided": true,
      "extensions": {
        "KHR_materials_unlit": {}
      },
      "name": "tex_u1_v1",
      "pbrMetallicRoughness": {
        "baseColorTexture": {
          "index": 0
        },
        "metallicFactor": 0.0
      }
    }
  ],
  "meshes": [
    {
      "name": "model_tex_u1_v1_0",
      "primitives": [
        {
          "attributes": {
            "NORMAL": 1,
            "POSITION": 0,
            "TEXCOORD_0": 2,
            "TEXCOORD_1": 3
          },
          "indices": 4,
          "material": 0,
          "mode": 4
        }
      ]
    },
    {
      "name": "model_tex_u1_v1_0",
      "primitives": [
        {
          "attributes": {
            "NORMAL": 6,
            "POSITION": 5,
            "TEXCOORD_0": 7,
            "TEXCOORD_1": 8
          },
          "indices": 9,
          "material": 0,
          "mode": 4
        }
      ]
    },
    {
      "name": "model_tex_u1_v1_0",
      "primitives": [
        {
          "attributes": {
            "NORMAL": 11,
            "POSITION": 10,
            "TEXCOORD_0": 12,
            "TEXCOORD_1": 13
          },
          "indices": 14,
          "material": 0,
          "mode": 4
        }
      ]
    },
    {
      "name": "model_tex_u1_v1_0",
      "primitives": [
        {
          "attributes": {
            "NORMAL": 16,
            "POSITION": 15,
            "TEXCOORD_0": 17,
            "TEXCOORD_1": 18
          },
          "indices": 19,
          "material": 0,
          "mode": 4
        }
      ]
    },
    {
      "name": "model_tex_u1_v1_0",
      "primitives": [
        {
          "attributes": {
            "NORMAL": 21,
            "POSITION": 20,
            "TEXCOORD_0": 22,
            "TEXCOORD_1": 23
          },
          "indices": 24,
          "material": 0,
          "mode": 4
        }
      ]
    },
    {
      "name": "model_tex_u1_v1_0",
      "primitives": [
        {
          "attributes": {
            "NORMAL": 26,
            "POSITION": 25,
            "TEXCOORD_0": 27,
            "TEXCOORD_1": 28
          },
          "indices": 29,
          "material": 0,
          "mode": 4
        }
      ]
    },
    {
      "name": "model_tex_u1_v1_0",
      "primitives": [
        {
          "attributes": {
            "NORMAL": 31,
            "POSITION": 30,
            "TEXCOORD_0": 32,
            "TEXCOORD_1": 33
          },
          "indices": 34,
          "material": 0,
          "mode": 4
        }
      ]
    },
    {
      "name": "model_tex_u1_v1_0",
      "primitives": [
        {
          "attributes": {
            "NORMAL": 36,
            "POSITION": 35,
            "TEXCOORD_0": 37,
            "TEXCOORD_1": 38
          },
          "indices": 39,
          "material": 0,
          "mode": 4
        }
      ]
    },
    {
      "name": "model_tex_u1_v1_0",
      "primitives": [
        {
          "attributes": {
            "NORMAL": 41,
            "POSITION": 40,
            "TEXCOORD_0": 42,
            "TEXCOORD_1": 43
          },
          "indices": 44,
          "material": 0,
          "mode": 4
        }
      ]
    }
  ],
  "nodes": [
    {
      "children": [
        1
      ],
      "matrix": [
        1.0,
        0.0,
        0.0,
        0.0,
        0.0,
        2.220446049250313e-16,
        -1.0,
        0.0,
        0.0,
        1.0,
        2.220446049250313e-16,
        0.0,
        0.0,
        0.0,
        0.0,
        1.0
      ],
      "name": "Sketchfab_model"
    },
    {
      "children": [
        2
      ],
      "matrix": [
        1.0,
        0.0,
        0.0,
        0.0,
        0.0,
        0.0,
        1.0,
        0.0,
        0.0,
        -1.0,
        0.0,
        0.0,
        0.0,
        0.0,
        0.0,
        1.0
      ],
      "name": "model.fbx"
    },
    {
      "children": [
        3
      ],
      "name": "RootNode"
    },
    {
      "children": [
        4,
        5,
        6,
        7,
        8,
        9,
        10,
        11,
        12
      ],
      "matrix": [
        1.0,
        0.0,
        0.0,
        0.0,
        0.0,
        2.220446049250313e-16,
        -1.0,
        0.0,
        0.0,
        1.0,
        2.220446049250313e-16,
        0.0,
        0.0,
        0.0,
        0.0,
        1.0
      ],
      "name": "model"
    },
    {
      "mesh": 0,
      "name": "model_tex_u1_v1_0"
    },
    {
      "mesh": 1,
      "name": "model_tex_u1_v1_0"
    },
    {
      "mesh": 2,
      "name": "model_tex_u1_v1_0"
    },
    {
      "mesh": 3,
      "name": "model_tex_u1_v1_0"
    },
    {
      "mesh": 4,
      "name": "model_tex_u1_v1_0"
    },
    {
      "mesh": 5,
      "name": "model_tex_u1_v1_0"
    },
    {
      "mesh": 6,
      "name": "model_tex_u1_v1_0"
    },
    {
      "mesh": 7,
      "name": "model_tex_u1_v1_0"
    },
    {
      "mesh": 8,
      "name": "model_tex_u1_v1_0"
    }
  ],
  "samplers": [
    {
      "magFilter": 9729,
      "minFilter": 9987,
      "wrapS": 10497,
      "wrapT": 10497
    }
  ],
  "scene": 0,
  "scenes": [
    {
      "name": "Sketchfab_Scene",
      "nodes": [
        0
      ]
    }
  ],
  "textures": [
    {
      "sampler": 0,
      "source": 0
    }
  ]
}
